HIERARCHY
ROOT Hips
{
	OFFSET 0.000000 0.000000 0.000000
	CHANNELS 6 Xposition Yposition Zposition Zrotation Yrotation Xrotation 
	JOINT LeftUpLeg_virtual
	{
		OFFSET 0.000000 0.000000 0.000000
		CHANNELS 3 Zrotation Yrotation Xrotation
		JOINT LeftUpLeg
		{
			OFFSET 10.205400 -3.823500 0.155100
			CHANNELS 3 Zrotation Yrotation Xrotation
			JOINT LeftLeg
			{
				OFFSET 0.708757 -12.982077 0.567790
				CHANNELS 3 Zrotation Yrotation Xrotation
				JOINT LeftFoot
				{
					OFFSET -0.708756 -10.717838 -2.184338
					CHANNELS 3 Zrotation Yrotation Xrotation
					JOINT LeftToeBase
					{
						OFFSET 0.108149 -7.191104 7.560241
						CHANNELS 3 Zrotation Yrotation Xrotation
						End Site
						{
							OFFSET 0.000000 0.000000 0.000000
						}
					}
				}
			}
		}
	}
	JOINT RightUpLeg_virtual
	{
		OFFSET 0.000000 0.000000 0.000000
		CHANNELS 3 Zrotation Yrotation Xrotation
		JOINT RightUpLeg
		{
			OFFSET -10.205400 -3.823500 0.005500
			CHANNELS 3 Zrotation Yrotation Xrotation
			JOINT RightLeg
			{
				OFFSET -0.708756 -12.982134 0.610632
				CHANNELS 3 Zrotation Yrotation Xrotation
				JOINT RightFoot
				{
					OFFSET 0.708754 -10.717769 -1.945823
					CHANNELS 3 Zrotation Yrotation Xrotation
					JOINT RightToeBase
					{
						OFFSET -0.108140 -7.191069 7.372968
						CHANNELS 3 Zrotation Yrotation Xrotation
						End Site
						{
							OFFSET 0.000000 0.000000 0.000000
						}
					}
				}
			}
		}
	}
	JOINT Spine_virtual
	{
		OFFSET 0.000000 0.000000 0.000000
		CHANNELS 3 Zrotation Yrotation Xrotation
		JOINT Spine
		{
			OFFSET 0.000000 6.876099 0.125700
			CHANNELS 3 Zrotation Yrotation Xrotation
			JOINT Spine1
			{
				OFFSET 0.000000 8.022060 0.146608
				CHANNELS 3 Zrotation Yrotation Xrotation
				JOINT Spine2
				{
					OFFSET 0.000000 9.168068 0.167552
					CHANNELS 3 Zrotation Yrotation Xrotation
					JOINT Neck_virtual
					{
						OFFSET 0.000000 0.000000 0.000000
						CHANNELS 3 Zrotation Yrotation Xrotation
						JOINT Neck
						{
							OFFSET 0.000000 10.314075 0.188496
							CHANNELS 3 Zrotation Yrotation Xrotation
							JOINT Head
							{
								OFFSET 0.000000 7.643700 -2.377400
								CHANNELS 3 Zrotation Yrotation Xrotation
								End Site
								{
									OFFSET 0.000000 0.000000 0.000000
								}
							}
						}
					}
					JOINT LeftShoulder_virtual
					{
						OFFSET 0.000000 0.000000 0.000000
						CHANNELS 3 Zrotation Yrotation Xrotation
						JOINT LeftShoulder
						{
							OFFSET 4.392200 8.824978 0.174984
							CHANNELS 3 Zrotation Yrotation Xrotation
							JOINT LeftArm
							{
								OFFSET 8.771219 -2.981674 -0.026999
								CHANNELS 3 Zrotation Yrotation Xrotation
								JOINT LeftForeArm
								{
									OFFSET 8.512804 0.000000 -0.000000
									CHANNELS 3 Zrotation Yrotation Xrotation
									JOINT LeftHand
									{
										OFFSET 18.484802 0.000000 -0.000000
										CHANNELS 3 Zrotation Yrotation Xrotation
										End Site
										{
											OFFSET 0.000000 0.000000 0.000000
										}
									}
								}
							}
						}
					}
					JOINT RightShoulder_virtual
					{
						OFFSET 0.000000 0.000000 0.000000
						CHANNELS 3 Zrotation Yrotation Xrotation
						JOINT RightShoulder
						{
							OFFSET -4.392200 8.824993 0.141379
							CHANNELS 3 Zrotation Yrotation Xrotation
							JOINT RightArm
							{
								OFFSET -8.771282 -2.981682 -0.094208
								CHANNELS 3 Zrotation Yrotation Xrotation
								JOINT RightForeArm
								{
									OFFSET -8.494598 0.000000 0.000000
									CHANNELS 3 Zrotation Yrotation Xrotation
									JOINT RightHand
									{
										OFFSET -18.483803 0.000000 0.000001
										CHANNELS 3 Zrotation Yrotation Xrotation
										End Site
										{
											OFFSET 0.000000 0.000000 0.000000
										}
									}
								}
							}
						}
					}
				}
			}
		}
	}
}
MOTION
Frames: 8
Frame Time: 0.033333
18.974787 35.181210 -0.501385 -179.928616 -21.893077 179.553051 -3.116455 -2.292829 7.395206 10.172074 -2.386457 -24.133142 4.347472 3.889939 37.969254 -2.705545 -4.445969 5.058114 0.000000 0.000000 0.000000 0.823487 -2.963562 4.061647 9.791748 10.904379 -3.699160 -5.123114 4.456253 13.117041 6.049329 3.591973 -0.574329 0.000000 0.000000 0.000000 -1.602691 0.391870 -3.687255 2.682972 -0.330774 -5.224737 -1.861666 -1.144108 7.836078 -0.011421 -0.105420 -0.094309 -2.315453 1.616647 9.544442 -4.517430 -4.442539 15.565796 0.000000 0.000000 0.000000 -0.455241 2.017004 6.953784 9.154168 7.060702 2.904974 -46.769676 15.942012 -39.968863 -172.128608 -75.796242 -175.866142 0.000000 0.000000 0.000000 -5.142211 3.653021 6.410591 21.592198 3.875193 -0.922494 21.847163 -34.330385 57.938958 -50.755658 84.851932 -50.221541 0.000000 0.000000 0.000000 
19.010561 35.146706 -0.450872 -179.918166 -22.328348 179.510444 -3.166497 -2.357325 7.454971 10.224243 -2.633076 -24.526335 4.309211 3.674760 38.158675 -2.690572 -4.441223 4.955720 0.000000 0.000000 0.000000 0.715851 -3.130484 4.211173 9.892440 10.708201 -3.822920 -5.105857 4.306777 13.017674 6.083874 3.591639 -0.626331 0.000000 0.000000 0.000000 -1.622605 0.202663 -3.395959 2.685107 -0.093169 -5.027046 -1.844649 -0.926532 7.790529 0.000807 -0.031727 -0.055360 -2.257090 1.681804 9.603214 -4.765266 -4.349117 16.123527 0.000000 0.000000 0.000000 -0.438294 2.057032 7.000093 7.311790 7.612970 3.069719 -47.508033 17.653334 -40.092664 -172.135794 -75.651831 -175.190500 0.000000 0.000000 0.000000 -5.165910 3.645014 6.371975 22.517114 2.675666 -0.779863 21.690468 -36.145785 57.569677 -52.082586 84.928082 -51.347781 0.000000 0.000000 0.000000 
19.050747 35.128418 -0.392633 -179.921854 -22.934215 179.523504 -3.213368 -2.438725 7.394388 10.329255 -2.845094 -24.947816 4.291009 3.434983 38.177520 -2.766289 -4.441713 5.029626 0.000000 0.000000 0.000000 0.645699 -3.278580 4.358029 9.913520 10.389052 -3.976381 -4.986357 4.025110 12.887505 6.125635 3.599434 -0.611194 0.000000 0.000000 0.000000 -1.639656 0.072683 -3.219143 2.591528 0.048385 -4.861889 -1.845145 -0.867371 7.799439 0.006243 -0.053879 -0.080809 -2.268246 1.645438 9.685369 -5.252656 -4.112541 16.577195 0.000000 0.000000 0.000000 -0.410821 2.233948 7.052687 5.987077 7.889897 3.014881 -47.797889 18.729731 -39.499360 -171.890071 -75.609825 -174.809485 0.000000 0.000000 0.000000 -5.161524 3.732093 6.469479 23.269293 2.139990 -0.725562 21.404536 -37.171898 57.113881 -50.972506 85.243582 -50.160807 0.000000 0.000000 0.000000 
19.074402 35.131371 -0.319686 179.967958 -23.523738 179.543339 -3.307460 -2.394679 7.373810 10.350510 -3.097810 -25.304577 4.318980 3.440240 37.935933 -2.891483 -4.567164 5.198173 0.000000 0.000000 0.000000 0.581318 -3.220825 4.458882 9.758381 10.005670 -4.136562 -4.746240 3.528179 12.849107 6.026290 3.513033 -0.608972 0.000000 0.000000 0.000000 -1.678366 -0.052617 -3.115244 2.425164 0.310261 -4.712439 -1.838052 -0.733582 7.888064 0.041182 -0.039096 -0.104518 -2.267771 1.898858 9.763903 -6.028478 -3.962816 17.010347 0.000000 0.000000 0.000000 -0.398398 2.283419 7.173254 5.230346 7.480026 3.234963 -47.790666 18.717850 -38.818103 -171.985447 -75.827531 -174.153650 0.000000 0.000000 0.000000 -5.094284 3.830069 6.538165 23.688465 1.967511 -0.430055 21.113163 -37.413386 56.740861 -49.691088 85.426542 -48.818285 0.000000 0.000000 0.000000 
19.076500 35.142189 -0.224645 -179.955704 -24.463438 179.506264 -3.264827 -2.594079 7.267808 10.350148 -3.269536 -25.674097 4.322866 3.446158 37.803929 -3.073447 -4.599454 5.540630 0.000000 0.000000 0.000000 0.657259 -3.442923 4.574520 9.675801 9.671387 -4.276242 -4.742120 3.375282 12.797366 6.010077 3.492776 -0.581832 0.000000 0.000000 0.000000 -1.575878 -0.220220 -3.072007 2.262266 0.476868 -4.647006 -1.846289 -0.690280 7.968760 0.009519 -0.063307 -0.040418 -2.314977 1.998235 9.809692 -6.970344 -3.484189 17.425631 0.000000 0.000000 0.000000 -0.371424 2.358050 7.185920 4.907014 6.610632 3.299956 -47.215090 17.784354 -37.379477 -172.242181 -76.024964 -173.428776 0.000000 0.000000 0.000000 -5.080409 3.994403 6.610714 23.947485 2.101235 -0.112730 20.734832 -37.129352 56.467858 -49.046830 85.465857 -48.174595 0.000000 0.000000 0.000000 
19.058228 35.154976 -0.125742 179.946333 -25.411227 179.522370 -3.349477 -2.736271 7.265312 10.280030 -3.533420 -26.024711 4.407547 3.582981 37.623995 -3.238239 -4.649004 5.868104 0.000000 0.000000 0.000000 0.614449 -3.605318 4.727649 9.449588 9.308318 -4.488984 -4.605996 3.097857 12.872805 5.952299 3.414455 -0.649472 0.000000 0.000000 0.000000 -1.538613 -0.348730 -3.044547 2.011199 0.565846 -4.643711 -1.888729 -0.676596 7.994336 0.006007 -0.087989 0.017571 -2.340945 1.956805 9.943144 -7.948565 -3.094817 17.753188 0.000000 0.000000 0.000000 -0.366127 2.376918 7.271500 4.943555 5.430764 3.247094 -46.327804 16.225859 -35.628323 -172.488327 -76.294975 -172.740566 0.000000 0.000000 0.000000 -5.069753 3.975396 6.679560 24.043466 2.541688 0.128036 20.259424 -36.476093 56.169502 -44.644568 85.574108 -43.793930 0.000000 0.000000 0.000000 
19.019846 35.157887 -0.039171 -179.998106 -26.315800 179.496962 -3.275062 -2.865553 7.280992 10.148315 -3.844813 -26.405424 4.488910 3.664737 37.420038 -3.392007 -4.633940 6.090045 0.000000 0.000000 0.000000 0.696949 -3.721583 4.910993 9.241654 8.998026 -4.746004 -4.545980 2.989768 13.034402 5.919109 3.380961 -0.776719 0.000000 0.000000 0.000000 -1.406381 -0.435137 -3.158712 1.814827 0.677611 -4.646384 -1.923947 -0.730148 8.117943 0.005757 -0.108811 -0.106382 -2.452621 1.948948 10.244529 -8.924772 -2.697842 18.028486 0.000000 0.000000 0.000000 -0.412112 2.404816 7.477336 5.147559 4.066298 3.190134 -45.389148 14.372110 -33.399424 -171.535556 -76.423451 -173.282459 0.000000 0.000000 0.000000 -5.141043 3.871020 7.009949 24.096269 3.115829 0.345258 19.715963 -35.612463 56.203270 -42.556238 85.414944 -41.749818 0.000000 0.000000 0.000000 
18.968170 35.151188 0.031334 -179.974556 -27.160669 179.489189 -3.185672 -2.882644 7.327768 9.933808 -4.180428 -26.732008 4.598109 3.730866 37.230576 -3.509608 -4.610275 6.215039 0.000000 0.000000 0.000000 0.760896 -3.740105 5.138244 9.023980 8.661658 -5.048899 -4.414812 2.802257 13.287144 5.865591 3.304991 -0.952365 0.000000 0.000000 0.000000 -1.268772 -0.384763 -3.316773 1.644486 0.505063 -4.680551 -1.970199 -0.699243 8.230013 0.027306 -0.091453 -0.083439 -2.560974 1.978460 10.483451 -9.781218 -2.358996 18.346052 0.000000 0.000000 0.000000 -0.513770 2.356469 7.678273 5.276357 2.747446 3.186292 -44.825640 12.805213 -30.611887 -171.762032 -76.754203 -172.644479 0.000000 0.000000 0.000000 -5.160362 3.998697 7.101273 24.189555 3.476809 0.680633 19.279249 -34.832052 56.161514 -41.215465 85.356109 -40.430765 0.000000 0.000000 0.000000 
